<svg id="ic-download-circle-drak" xmlns="http://www.w3.org/2000/svg" width="22" height="22" viewBox="0 0 22 22">
  <g id="Group_1645" data-name="Group 1645">
    <rect id="Rectangle_838" data-name="Rectangle 838" width="22" height="22" fill="none"/>
  </g>
  <g id="Group_1647" data-name="Group 1647" transform="translate(1.833 1.833)">
    <g id="Group_1646" data-name="Group 1646">
      <path id="Path_571" data-name="Path 571" d="M11.167,2a9.167,9.167,0,1,0,9.167,9.167A9.182,9.182,0,0,0,11.167,2Zm0,16.5A7.333,7.333,0,1,1,18.5,11.167,7.343,7.343,0,0,1,11.167,18.5ZM13.541,8.041l1.292,1.292L11.167,13,7.5,9.333,8.792,8.041,10.25,9.489V5.667h1.833V9.489ZM15.75,15.75H6.583V13.917H15.75Z" transform="translate(-2 -2)" fill="#333"/>
    </g>
  </g>
</svg>
