<svg id="ic-file" xmlns="http://www.w3.org/2000/svg" width="28" height="28" viewBox="0 0 28 28">
  <g id="Group_1673" data-name="Group 1673">
    <path id="Path_585" data-name="Path 585" d="M0,0H28V28H0Z" fill="none"/>
  </g>
  <g id="Group_1674" data-name="Group 1674" transform="translate(4.667 2.333)">
    <path id="Path_586" data-name="Path 586" d="M15.667,2H6.333A2.34,2.34,0,0,0,4,4.333V23a2.34,2.34,0,0,0,2.333,2.333h14A2.34,2.34,0,0,0,22.667,23V9Zm4.667,21h-14V4.333h9.333V9h4.667Zm-7-3.5h0A2.34,2.34,0,0,1,11,17.167V10.75a.578.578,0,0,1,.583-.583h0a.578.578,0,0,1,.583.583v6.417H14.5V10.75a2.918,2.918,0,0,0-2.917-2.917h0A2.918,2.918,0,0,0,8.667,10.75v6.417a4.665,4.665,0,0,0,4.667,4.667h0A4.665,4.665,0,0,0,18,17.167V12.5H15.667v4.667A2.34,2.34,0,0,1,13.333,19.5Z" transform="translate(-4 -2)" fill="#57d1ff"/>
  </g>
</svg>
