<svg id="ic-files" xmlns="http://www.w3.org/2000/svg" width="28" height="28" viewBox="0 0 28 28">
  <g id="Group_1678" data-name="Group 1678">
    <rect id="Rectangle_857" data-name="Rectangle 857" width="28" height="28" fill="none"/>
  </g>
  <g id="Group_1679" data-name="Group 1679" transform="translate(1.167 2.333)">
    <path id="Path_589" data-name="Path 589" d="M3.333,21.833H23.167v2.333H3.333A2.34,2.34,0,0,1,1,21.833V6.667H3.333ZM26.667,6.667v10.5A2.34,2.34,0,0,1,24.333,19.5H8a2.34,2.34,0,0,1-2.333-2.333L5.678,4.333A2.33,2.33,0,0,1,8,2h5.833l2.333,2.333h8.167A2.34,2.34,0,0,1,26.667,6.667ZM8,17.167H24.333V6.667H15.2L12.865,4.333H8Z" transform="translate(-1 -2)" fill="#57d1ff"/>
  </g>
</svg>
