<svg id="ic-globe" xmlns="http://www.w3.org/2000/svg" width="30" height="30" viewBox="0 0 30 30">
  <path id="Path_578" data-name="Path 578" d="M0,0H30V30H0Z" fill="none"/>
  <path id="Path_579" data-name="Path 579" d="M14.5,2A12.5,12.5,0,1,0,27,14.5,12.5,12.5,0,0,0,14.5,2ZM4.5,14.5a10.035,10.035,0,0,1,.262-2.225l5.975,5.975V19.5a2.507,2.507,0,0,0,2.5,2.5v2.413A10.014,10.014,0,0,1,4.5,14.5Zm17.362,6.75a2.491,2.491,0,0,0-2.375-1.75h-1.25V15.75a1.254,1.254,0,0,0-1.25-1.25h-7.5V12h2.5a1.254,1.254,0,0,0,1.25-1.25V8.25h2.5a2.507,2.507,0,0,0,2.5-2.5V5.238A9.972,9.972,0,0,1,21.862,21.25Z" transform="translate(0.5 0.5)" fill="#fff"/>
</svg>
