<svg id="ic-home" xmlns="http://www.w3.org/2000/svg" width="20" height="18" viewBox="0 0 20 18">
  <path id="Path_567" data-name="Path 567" d="M11.442,1.559a1.44,1.44,0,0,0-1.885,0L.695,9.534a.559.559,0,0,0,0,.85.721.721,0,0,0,.944,0L10.5,2.407l8.861,7.976a.721.721,0,0,0,.944,0,.559.559,0,0,0,0-.85L17.165,6.71V2.759a.636.636,0,0,0-.667-.6H15.166a.636.636,0,0,0-.667.6V4.31Z" transform="translate(-0.499 -1.207)" fill="#999"/>
  <path id="Path_568" data-name="Path 568" d="M10,3.293l8,7.2v5.048a1.908,1.908,0,0,1-2,1.8H4a1.908,1.908,0,0,1-2-1.8V10.493Z" transform="translate(0.001 0.659)" fill="#999"/>
</svg>
