<svg xmlns="http://www.w3.org/2000/svg" width="24" height="24" viewBox="0 0 24 24">
  <g id="ic-info" transform="translate(-4148 -3462)">
    <path id="ic-info-2" data-name="ic-info" d="M9.093,18.187A9.093,9.093,0,1,0,0,9.093,9.093,9.093,0,0,0,9.093,18.187Zm1.057-10.7L9.014,12.836c-.08.386.033.606.346.606a1.257,1.257,0,0,0,.78-.28l-.1.473a2.354,2.354,0,0,1-1.665.68c-.8,0-1.139-.48-.918-1.5l.839-3.942c.073-.333.007-.454-.326-.534l-.513-.092.093-.433,2.6-.326ZM9.093,6.252A1.137,1.137,0,1,1,10.23,5.115,1.137,1.137,0,0,1,9.093,6.252Z" transform="translate(4151 3465)" fill="#333"/>
    <rect id="Rectangle_871" data-name="Rectangle 871" width="24" height="24" transform="translate(4148 3462)" fill="none"/>
  </g>
</svg>
