<svg xmlns="http://www.w3.org/2000/svg" xmlns:xlink="http://www.w3.org/1999/xlink" width="28" height="28" viewBox="0 0 28 28">
  <defs>
    <clipPath id="clip-path">
      <rect id="Rectangle_850" data-name="Rectangle 850" width="23.35" height="24.76" fill="#57d1ff"/>
    </clipPath>
  </defs>
  <g id="ic-link" transform="translate(-1004 -533)">
    <rect id="Rectangle_858" data-name="Rectangle 858" width="28" height="28" transform="translate(1004 533)" fill="none"/>
    <g id="Group_1666" data-name="Group 1666" transform="translate(1006 534.62)">
      <g id="Group_1664" data-name="Group 1664" clip-path="url(#clip-path)">
        <path id="Path_580" data-name="Path 580" d="M98.58,6.991a6.54,6.54,0,0,0-9.8-6.109L82.7,4.4A6.532,6.532,0,0,0,79.45,9.613a6.781,6.781,0,0,0,0,.809l3.649-2.111a3.351,3.351,0,0,1,1.192-1.169l6.075-3.52A3.358,3.358,0,0,1,91.631,3.2a3.392,3.392,0,0,1,1.9.313A3.386,3.386,0,0,1,95.4,6.122a3.391,3.391,0,0,1-.316,1.9,3.338,3.338,0,0,1-1.342,1.443l-6.076,3.521a3.437,3.437,0,0,1-1.269.427c-.114.015-.224.02-.337.025l-3.65,2.114a6.537,6.537,0,0,0,6.841.172L95.332,12.2A6.538,6.538,0,0,0,98.58,6.991" transform="translate(-75.246 0)" fill="#57d1ff"/>
        <path id="Path_581" data-name="Path 581" d="M19.151,160.784,15.5,162.9a3.362,3.362,0,0,1-1.191,1.167l-6.078,3.518a3.317,3.317,0,0,1-1.269.43,3.43,3.43,0,0,1-1.9-.315,3.386,3.386,0,0,1-1.871-2.612,3.407,3.407,0,0,1,.314-1.9,3.365,3.365,0,0,1,1.344-1.442l6.076-3.52a3.412,3.412,0,0,1,1.27-.43c.11-.013.224-.018.336-.022l3.65-2.114a6.533,6.533,0,0,0-6.841-.174L3.265,159a6.46,6.46,0,0,0-1.947,1.724,6.54,6.54,0,0,0,8.5,9.6l6.077-3.518a6.546,6.546,0,0,0,3.253-6.023" transform="translate(0 -146.447)" fill="#57d1ff"/>
      </g>
    </g>
  </g>
</svg>
