<svg xmlns="http://www.w3.org/2000/svg" width="24" height="24" viewBox="0 0 24 24">
  <g id="ic-mark" transform="translate(-387 -579)">
    <path id="Path_479" data-name="Path 479" d="M12,0A12,12,0,1,1,0,12,12,12,0,0,1,12,0Z" transform="translate(387 579)" fill="#57d1ff"/>
    <g id="押しピンのフリーアイコン7" transform="translate(392.202 584.201)">
      <path id="Path_28" data-name="Path 28" d="M2.621,369.376.045,371.952,0,373.163l1.211-.045,2.576-2.576c-.2-.179-.4-.366-.6-.564S2.8,369.578,2.621,369.376Z" transform="translate(0 -359.567)" fill="#435f71"/>
      <path id="Path_29" data-name="Path 29" d="M60.249,1.752C58.7.209,56.847-.436,56.1.312c-.417.416-.4,1.177-.039,2.035L53.714,4.38c-1.48-.827-2.862-1-3.556-.306-1.04,1.04-.144,3.622,2,5.767s4.727,3.041,5.767,2c.694-.694.522-2.076-.305-3.556l2.034-2.345c.858.361,1.618.377,2.034-.039C62.437,5.154,61.792,3.3,60.249,1.752Z" transform="translate(-48.404 0)" fill="#435f71"/>
    </g>
  </g>
</svg>
