<svg xmlns="http://www.w3.org/2000/svg" width="50.667" height="38" viewBox="0 0 50.667 38">
  <g id="ic-menu" transform="translate(0 -58.025)">
    <g id="grip-solid-horizontal_1_" transform="translate(0 58.025)">
      <path id="Path_538" data-name="Path 538" d="M47.5,354.487H3.167a3.167,3.167,0,0,1,0-6.333H47.5a3.167,3.167,0,1,1,0,6.333Z" transform="translate(0 -316.487)" fill="#23ecd0"/>
      <path id="Path_539" data-name="Path 539" d="M47.5,209.423H3.167a3.167,3.167,0,1,1,0-6.333H47.5a3.167,3.167,0,1,1,0,6.333Z" transform="translate(0 -187.257)" fill="#23ecd0"/>
      <path id="Path_540" data-name="Path 540" d="M47.5,64.358H3.167a3.167,3.167,0,1,1,0-6.333H47.5a3.167,3.167,0,1,1,0,6.333Z" transform="translate(0 -58.025)" fill="#23ecd0"/>
    </g>
  </g>
</svg>
