<svg xmlns="http://www.w3.org/2000/svg" width="48" height="48" viewBox="0 0 48 48">
  <g id="ic-meal" transform="translate(-1026 -597)">
    <g id="ステーキのアイコン" transform="translate(1027 606)">
      <path id="Path_22" data-name="Path 22" d="M45.775,104.723c-.139-4.341-3.968-7.6-9.336-7.928-10.808-.669-9.792-6.022-18.748-6.592-.5-.032-1-.048-1.49-.048-9.147,0-15.3,5.53-16.1,12.288-.049.411-.075.816-.087,1.217H0v4.724H.028C.315,114.369,4.8,119.046,12.1,119.25l20.08.56c6.226.173,12.226-4,13.4-9.323a8.307,8.307,0,0,0,.158-1.041h.041v-4.724Zm-2.5,1.515c-.909,4.122-5.718,7.475-10.719,7.475-.1,0-.206,0-.31,0l-5.03-.141-15.05-.42a10.237,10.237,0,0,1-7.735-3.26,9.142,9.142,0,0,1-1.994-7.167c.715-6.009,6.373-10.205,13.76-10.205.439,0,.89.014,1.34.043a12.292,12.292,0,0,1,7.19,2.645,20.015,20.015,0,0,0,11.562,3.947,8.18,8.18,0,0,1,6.13,2.831A5.052,5.052,0,0,1,43.278,106.238Z" transform="translate(0 -90.155)" fill="#fbbe30"/>
      <path id="Path_23" data-name="Path 23" d="M202.248,186.182l-9.35,12.4,5.923.165,8.187-10.854A18.864,18.864,0,0,1,202.248,186.182Z" transform="translate(-175.649 -177.595)" fill="#fbbe30"/>
      <path id="Path_24" data-name="Path 24" d="M101.358,144.419a10.158,10.158,0,0,0-5.02-2.143L85.284,156.932a8.924,8.924,0,0,0,5.069,1.539l1.174.033,10.356-13.731C101.7,144.653,101.529,144.535,101.358,144.419Z" transform="translate(-77.658 -137.615)" fill="#fbbe30"/>
      <path id="Path_25" data-name="Path 25" d="M55.64,149.5a7.473,7.473,0,0,0,.739,4.414L65.9,141.29C60.329,141.7,56.181,144.962,55.64,149.5Z" transform="translate(-50.608 -136.717)" fill="#fbbe30"/>
      <path id="Path_26" data-name="Path 26" d="M305.978,210.711c-.393-.024-.773-.055-1.142-.091l-7.9,10.47,5.318.148c.086,0,.172,0,.258,0,3.96,0,7.893-2.662,8.589-5.815a3.143,3.143,0,0,0-.515-2.682A6.164,6.164,0,0,0,305.978,210.711Z" transform="translate(-270.387 -199.848)" fill="#fbbe30"/>
    </g>
    <rect id="Rectangle_793" data-name="Rectangle 793" width="48" height="48" transform="translate(1026 597)" fill="none"/>
  </g>
</svg>
