<svg xmlns="http://www.w3.org/2000/svg" width="30" height="30" viewBox="0 0 30 30">
  <g id="ic-photo" transform="translate(-370 -303)">
    <g id="images" transform="translate(370.998 305)">
      <path id="Path_557" data-name="Path 557" d="M5.627,11.251A2.625,2.625,0,1,0,3,8.625,2.625,2.625,0,0,0,5.627,11.251Z" transform="translate(2.251 3.751)" fill="#fff"/>
      <path id="Path_558" data-name="Path 558" d="M24.505,22A3.5,3.5,0,0,1,21,25.5H3.5A3.5,3.5,0,0,1,0,22V8A3.5,3.5,0,0,1,3.5,4.5,3.5,3.5,0,0,1,7,1H24.5A3.5,3.5,0,0,1,28,4.5v14a3.5,3.5,0,0,1-3.5,3.5Zm0-19.252H7A1.75,1.75,0,0,0,5.249,4.5H21a3.5,3.5,0,0,1,3.5,3.5V20.252a1.75,1.75,0,0,0,1.747-1.75V4.5A1.75,1.75,0,0,0,24.5,2.75Zm-21,3.5A1.75,1.75,0,0,0,1.752,8V22l4.631-4.12a.875.875,0,0,1,1.1-.109l4.656,3.1,6.493-6.493a.875.875,0,0,1,1.01-.165l3.11,3.408V8A1.75,1.75,0,0,0,21,6.251H3.5Z" fill="#fff"/>
    </g>
    <rect id="Rectangle_872" data-name="Rectangle 872" width="30" height="30" transform="translate(370 303)" fill="none"/>
  </g>
</svg>
