<svg xmlns="http://www.w3.org/2000/svg" width="16.209" height="16" viewBox="0 0 16.209 16">
  <g id="ic-photo-base" transform="translate(-7256 -5456)">
    <g id="images" transform="translate(7255.998 5456)">
      <path id="Path_557" data-name="Path 557" d="M4.522,9.04A1.52,1.52,0,1,0,3,7.52,1.52,1.52,0,0,0,4.522,9.04Z" transform="translate(0.04 0.066)" fill="#abd0e9"/>
      <path id="Path_558" data-name="Path 558" d="M14.187,13.158a2.026,2.026,0,0,1-2.026,2.026H2.028A2.026,2.026,0,0,1,0,13.158V5.053A2.026,2.026,0,0,1,2.026,3.026,2.026,2.026,0,0,1,4.053,1H14.185a2.026,2.026,0,0,1,2.026,2.026v8.106A2.026,2.026,0,0,1,14.187,13.158Zm0-11.145H4.053A1.013,1.013,0,0,0,3.04,3.026H12.16a2.026,2.026,0,0,1,2.026,2.026v7.092A1.013,1.013,0,0,0,15.2,11.132V3.026A1.013,1.013,0,0,0,14.185,2.013ZM2.028,4.04A1.013,1.013,0,0,0,1.015,5.053v8.106L3.7,10.773a.507.507,0,0,1,.638-.063l2.7,1.8,3.759-3.759a.507.507,0,0,1,.585-.1l1.8,1.973V5.053A1.013,1.013,0,0,0,12.16,4.04H2.028Z" fill="#abd0e9"/>
    </g>
    <rect id="Rectangle_872" data-name="Rectangle 872" width="16" height="16" transform="translate(7256 5456)" fill="none"/>
  </g>
</svg>
