<svg xmlns="http://www.w3.org/2000/svg" width="16" height="16" viewBox="0 0 16 16">
  <g id="ic-package-sm" transform="translate(-7384 38)">
    <g id="briefcase-fill" transform="translate(7384 -36)">
      <path id="Path_15" data-name="Path 15" d="M6.5,1A1.5,1.5,0,0,0,5,2.5V3H1.5A1.5,1.5,0,0,0,0,4.5V5.884l7.614,2.03a1.5,1.5,0,0,0,.772,0L16,5.884V4.5A1.5,1.5,0,0,0,14.5,3H11V2.5A1.5,1.5,0,0,0,9.5,1Zm0,1h3a.5.5,0,0,1,.5.5V3H6V2.5A.5.5,0,0,1,6.5,2Z" transform="translate(0 -1)" fill="#48667a"/>
      <path id="Path_16" data-name="Path 16" d="M0,12.5A1.5,1.5,0,0,0,1.5,14h13A1.5,1.5,0,0,0,16,12.5V6.85l-7.871,2.1a.5.5,0,0,1-.258,0L0,6.85Z" transform="translate(0 -1)" fill="#48667a"/>
    </g>
    <rect id="Rectangle_871" data-name="Rectangle 871" width="16" height="16" transform="translate(7384 -38)" fill="none"/>
  </g>
</svg>
