<svg id="ic-security" xmlns="http://www.w3.org/2000/svg" width="28" height="28" viewBox="0 0 28 28">
  <rect id="Rectangle_851" data-name="Rectangle 851" width="28" height="28" fill="none"/>
  <path id="Path_582" data-name="Path 582" d="M16.417,14.522l1.05,4.527L13.5,16.657,9.533,19.048l1.05-4.515-3.5-3.022,4.62-.4,1.8-4.258L15.3,11.1l4.62.4ZM13.5,3.555l8.167,3.628v5.483A12.219,12.219,0,0,1,13.5,24.252,12.219,12.219,0,0,1,5.333,12.667V7.183L13.5,3.555M13.5,1,3,5.667v7c0,6.475,4.48,12.53,10.5,14,6.02-1.47,10.5-7.525,10.5-14v-7L13.5,1Z" transform="translate(0.5 0.167)" fill="#57d1ff"/>
</svg>
