<svg xmlns="http://www.w3.org/2000/svg" width="48" height="48" viewBox="0 0 48 48">
  <g id="ic-vegetable" transform="translate(-1026 -750)">
    <g id="ほうれん草アイコン" transform="translate(1029 750)">
      <path id="Path_20" data-name="Path 20" d="M74.969,24.909c-3.308-4.448-9.663-4.761-16.783-1.229S49.336,33.765,46.067,38.352c-2.664,3.737-5.6,5.957-7.366,6.689,2.712-3.015,6.924-8.354,6.924-8.354s3.957-6.569,2.488-5.258c-1.163,1.04-8.565,8.67-11.582,11.788.447-1.846,2.2-5.1,5.526-8.308C46.11,30.994,56.4,25.36,58.828,17.8S57.761.486,52.724.018c-2.273-.211-5.209,1.313-7.329,4.959-2.278,3.919-5.1,7.138-6.236,10.4-1.8,5.188,1.11,12.529-1.66,18.51-1.954,4.221-5.346,7.52-3.181,12.381a.492.492,0,0,0,.338.3.793.793,0,0,0,.969.83.5.5,0,0,0,.355.295c5.136,1.409,7.9-2.434,11.78-5,5.507-3.632,8.135-.82,13.62-1.809,4.024-.724,5.774-3.636,9.312-6.472C73.985,31.781,76.352,26.77,74.969,24.909ZM49.224,12.769c2.133-5.242,3.175-7.241,3.8-6.384.755,1.037-7.863,20.578-9.649,22.26S47.09,18.011,49.224,12.769ZM61.061,32.58c-3.17,2.1-9.153,6.286-8.147,3.934.491-1.149,7.1-5.48,15.918-9.8C78.433,23.062,64.23,30.478,61.061,32.58Z" transform="translate(-33.62 0.001)" fill="#a9fe2a"/>
      <path id="Path_21" data-name="Path 21" d="M316.044,62.908c1.55-1.732,8.138-9.03,8.76-8.708.593.307-5.96,8.286-8.962,11.335,3.128-1.715,9.851-.524,9.851-.524a2.849,2.849,0,0,0,1.483-2.906c-.218-2.116,5.619-9.322-1.57-11.8a11.632,11.632,0,0,0-10.317,1.027C316.423,54.351,316.435,59.313,316.044,62.908Z" transform="translate(-288.849 -44.933)" fill="#a9fe2a"/>
    </g>
    <rect id="Rectangle_794" data-name="Rectangle 794" width="48" height="48" transform="translate(1026 750)" fill="none"/>
  </g>
</svg>
