<svg id="ic-weather-sun" xmlns="http://www.w3.org/2000/svg" width="24" height="24" viewBox="0 0 24 24">
  <path id="Path_2" data-name="Path 2" d="M0,0H24V24H0Z" fill="none"/>
  <path id="Path_3" data-name="Path 3" d="M6.76,4.84,4.96,3.05,3.55,4.46,5.34,6.25ZM1,10.5H4v2H1ZM11,.55h2V3.5H11Zm8.04,2.495,1.408,1.407-1.79,1.79L17.251,4.834ZM17.24,18.16l1.79,1.8,1.41-1.41-1.8-1.79ZM20,10.5h3v2H20Zm-8-5a6,6,0,1,0,6,6A6,6,0,0,0,12,5.5Zm0,10a4,4,0,1,1,4-4A4,4,0,0,1,12,15.5Zm-1,4h2v2.95H11Zm-7.45-.96,1.41,1.41,1.79-1.8L5.34,16.74Z" fill="#fffa72"/>
</svg>
